<?xml version="1.0" encoding="UTF-8" standalone="yes"?>
<!DOCTYPE svg PUBLIC "-//W3C//DTD SVG 1.1//EN" "http://www.w3.org/Graphics/SVG/1.1/DTD/svg11.dtd">

<svg width="1500" height="1500" viewBox="0 0 1500 1500" xmlns="http://www.w3.org/2000/svg" xmlns:xlink="http://www.w3.org/1999/xlink" version="1.1" baseProfile="full">
    <g transform="scale(1,-1) translate(0,-1500)">
        <path d="M 106.848074 135.019700 Q 106.848074 149.734675 99.106717 156.004534 Q 91.365361 162.274392 77.418124 162.274392 L 40.694665 162.274392 L 40.694665 106.741356 L 77.418124 106.741356 Q 91.365361 106.741356 99.106717 113.523041 Q 106.848074 120.304725 106.848074 135.019700 Z M 145.874747 135.275612 Q 145.874747 101.879017 128.984514 88.059736 Q 112.094282 74.240455 80.744988 74.240455 L 40.694665 74.240455 L 40.694665 6.423614 L 1.540035 6.423614 L 1.540035 195.031206 L 83.687983 195.031206 Q 112.094282 195.031206 128.984514 180.444188 Q 145.874747 165.857169 145.874747 135.275612 Z M 248.239790 149.222849 Q 249.263440 149.222849 249.967200 149.158871 Q 250.670960 149.094893 253.102129 148.966937 L 253.102129 111.603696 Q 249.647309 111.987565 246.960227 112.115521 Q 244.273144 112.243477 242.609713 112.243477 Q 220.601228 112.243477 213.051806 97.912371 Q 208.829248 89.851124 208.829248 73.088848 L 208.829248 6.423614 L 172.105789 6.423614 L 172.105789 145.895985 L 206.909904 145.895985 L 206.909904 121.584288 Q 215.355020 135.531525 221.624879 140.649777 Q 231.861383 149.222849 248.239790 149.222849 Z M 329.492043 119.536987 Q 316.824369 119.536987 309.850750 111.603696 Q 302.877132 103.670405 301.085744 90.107037 L 357.770386 90.107037 Q 356.874692 104.566099 349.005379 112.051543 Q 341.136067 119.536987 329.492043 119.536987 Z M 329.492043 149.606718 Q 346.894100 149.606718 360.841338 143.080947 Q 374.788575 136.555175 383.873472 122.479982 Q 392.062676 110.068220 394.493846 93.689813 Q 395.901365 84.093091 395.645452 66.051252 L 300.190049 66.051252 Q 300.957787 45.066418 313.369549 36.621302 Q 320.918971 31.375093 331.539344 31.375093 Q 342.799499 31.375093 349.837095 37.772908 Q 353.675785 41.227729 356.618780 47.369631 L 393.854064 47.369631 Q 392.446545 34.957870 380.930477 22.162239 Q 363.016595 1.817187 330.771606 1.817187 Q 304.156695 1.817187 283.811642 18.963332 Q 263.466590 36.109476 263.466590 74.752280 Q 263.466590 110.963914 281.828320 130.285316 Q 300.190049 149.606718 329.492043 149.606718 Z M 405.881957 118.641293 L 405.881957 144.616422 L 425.331315 144.616422 L 425.331315 183.515139 L 461.414993 183.515139 L 461.414993 144.616422 L 484.063259 144.616422 L 484.063259 118.641293 L 461.414993 118.641293 L 461.414993 44.938461 Q 461.414993 36.365389 463.590250 34.254110 Q 465.765507 32.142831 476.897705 32.142831 Q 478.561137 32.142831 480.416504 32.206809 Q 482.271870 32.270787 484.063259 32.398744 L 484.063259 5.144051 L 466.789157 4.504269 Q 440.941984 3.608575 431.473218 13.461211 Q 425.331315 19.731070 425.331315 32.782613 L 425.331315 118.641293 Z M 544.970459 162.530305 L 507.991087 162.530305 L 507.991087 196.182813 L 544.970459 196.182813 Z M 507.991087 145.895985 L 544.970459 145.895985 L 544.970459 6.423614 L 507.991087 6.423614 Z M 616.625990 145.895985 L 616.625990 61.828694 Q 616.625990 49.928757 619.441028 43.914811 Q 624.431324 33.294438 639.018343 33.294438 Q 657.699963 33.294438 664.609604 48.393282 Q 668.192380 56.582485 668.192380 70.017897 L 668.192380 145.895985 L 705.171752 145.895985 L 705.171752 6.423614 L 669.727856 6.423614 L 669.727856 26.128885 Q 669.216031 25.489103 667.168730 22.290196 Q 665.121429 19.091288 662.306390 16.660118 Q 653.733318 8.982740 645.736049 6.167701 Q 637.738780 3.352663 626.990450 3.352663 Q 596.025025 3.352663 585.276695 25.617060 Q 579.262749 37.900865 579.262749 61.828694 L 579.262749 145.895985 Z M 896.210514 148.966937 Q 905.423368 148.966937 914.380309 145.384160 Q 923.337251 141.801384 930.630760 132.844442 Q 936.516750 125.550933 938.564051 114.930560 Q 939.843614 107.892963 939.843614 94.329595 L 939.587701 6.423614 L 902.224461 6.423614 L 902.224461 95.225289 Q 902.224461 103.158580 899.665335 108.276832 Q 894.802995 118.001511 881.751452 118.001511 Q 866.652608 118.001511 860.894574 105.461793 Q 857.951579 98.808066 857.951579 89.467255 L 857.951579 6.423614 L 821.228120 6.423614 L 821.228120 89.467255 Q 821.228120 101.879017 818.668994 107.509094 Q 814.062567 117.617642 800.627155 117.617642 Q 785.016486 117.617642 779.642321 107.509094 Q 776.699326 101.751061 776.699326 90.362949 L 776.699326 6.423614 L 739.719954 6.423614 L 739.719954 145.640073 L 775.163851 145.640073 L 775.163851 125.295021 Q 781.945535 136.171306 787.959481 140.777733 Q 798.579854 148.966937 815.470086 148.966937 Q 831.464624 148.966937 841.317260 141.929340 Q 849.250551 135.403569 853.345152 125.167064 Q 860.510705 137.450869 871.131079 143.208903 Q 882.391233 148.966937 896.210514 148.966937 Z" transform="scale(1.000000,1.000000) translate(490.000000,651.000000)" fill="#00bf9a" opacity="1.000000"></path>
        <path d="M 350.646953 158.000000 L 263.382805 314.592640 L 88.854508 314.592640 L 1.590359 158.000000 L 88.854508 1.407360 L 263.382805 1.407360 L 350.646953 158.000000" transform="scale(1.000000,1.000000) translate(78.000000,592.000000)" fill="#00bf9a" opacity="1.000000"></path>
        <path d="M 103.995663 126.420728 Q 103.995663 140.761712 96.451058 146.872218 Q 88.906453 152.982724 75.313695 152.982724 L 39.523587 152.982724 L 39.523587 98.861098 L 75.313695 98.861098 Q 88.906453 98.861098 96.451058 105.470421 Q 103.995663 112.079744 103.995663 126.420728 Z M 142.030446 126.670136 Q 142.030446 94.122338 125.569490 80.654283 Q 109.108535 67.186229 78.556004 67.186229 L 39.523587 67.186229 L 39.523587 1.092999 L 1.364099 1.092999 L 1.364099 184.907001 L 81.424201 184.907001 Q 109.108535 184.907001 125.569490 170.690721 Q 142.030446 156.474442 142.030446 126.670136 Z" transform="scale(1.000000,1.000000) translate(195.000000,657.000000)" fill="#bfbfbf" opacity="1.000000"></path>
    </g>
</svg>